<?xml version="1.0" ?><svg height="20px" version="1.1" viewBox="0 0 20 20" width="20px" xmlns="http://www.w3.org/2000/svg" xmlns:sketch="http://www.bohemiancoding.com/sketch/ns" xmlns:xlink="http://www.w3.org/1999/xlink"><title/><desc/><defs/><g fill="none" fill-rule="evenodd" id="Page-1" stroke="none" stroke-width="1"><g fill="#000000" id="Core" transform="translate(-170.000000, -44.000000)"><g id="block" transform="translate(170.000000, 44.000000)"><path d="M10,0 C4.5,0 0,4.5 0,10 C0,15.5 4.5,20 10,20 C15.5,20 20,15.5 20,10 C20,4.5 15.5,0 10,0 L10,0 Z M2,10 C2,5.6 5.6,2 10,2 C11.8,2 13.5,2.6 14.9,3.7 L3.7,14.9 C2.6,13.5 2,11.8 2,10 L2,10 Z M10,18 C8.2,18 6.5,17.4 5.1,16.3 L16.3,5.1 C17.4,6.5 18,8.2 18,10 C18,14.4 14.4,18 10,18 L10,18 Z" id="Shape"/></g></g></g></svg>