<?xml version="1.0" ?><!DOCTYPE svg  PUBLIC '-//W3C//DTD SVG 1.1//EN'  'http://www.w3.org/Graphics/SVG/1.1/DTD/svg11.dtd'><svg height="128px" style="enable-background:new 0 0 143 128;" version="1.1" viewBox="0 0 143 128" width="143px" xml:space="preserve" xmlns="http://www.w3.org/2000/svg" xmlns:xlink="http://www.w3.org/1999/xlink"><style type="text/css">
<![CDATA[
	.st0{fill:#EF3E42;}
	.st1{fill:#FFFFFF;}
	.st2{fill:none;}
	.st3{fill-rule:evenodd;clip-rule:evenodd;fill:#FFFFFF;}
]]>
</style><defs/><path d="M132.2,105.3L96.1,69l36.2-36.1V105.3L132.2,105.3z M14.9,112.1l36.4-36.4l8,7.9c3,3,6.6,5,11,5s8-2,11-5l8-7.9l36.4,36.4  H14.9L14.9,112.1z M125.9,25.3L74,77.4c-1,1-1.9,1.6-3.7,1.6s-2.7-0.6-3.7-1.6L14.7,25.3H125.9L125.9,25.3z M8.4,32.9L44.6,69  L8.4,105.3V32.9L8.4,32.9z"/><rect class="st2" height="128" id="_x3C_Slice_x3E__100_" width="143"/></svg>