<?xml version="1.0" ?><svg height="23px" version="1.1" viewBox="0 0 16 23" width="16px" xmlns="http://www.w3.org/2000/svg" xmlns:sketch="http://www.bohemiancoding.com/sketch/ns" xmlns:xlink="http://www.w3.org/1999/xlink"><title/><desc/><defs/><g fill="none" fill-rule="evenodd" id="Page-1" stroke="none" stroke-width="1"><g fill="#000000" id="Core" transform="translate(-508.000000, -295.000000)"><g id="lock-open" transform="translate(508.000000, 295.500000)"><path d="M8,16 C9.1,16 10,15.1 10,14 C10,12.9 9.1,12 8,12 C6.9,12 6,12.9 6,14 C6,15.1 6.9,16 8,16 L8,16 Z M14,7 L13,7 L13,5 C13,2.2 10.8,0 8,0 C5.2,0 3,2.2 3,5 L4.9,5 C4.9,3.3 6.3,1.9 8,1.9 C9.7,1.9 11.1,3.3 11.1,5 L11.1,7 L2,7 C0.9,7 0,7.9 0,9 L0,19 C0,20.1 0.9,21 2,21 L14,21 C15.1,21 16,20.1 16,19 L16,9 C16,7.9 15.1,7 14,7 L14,7 Z M14,19 L2,19 L2,9 L14,9 L14,19 L14,19 Z" id="Shape"/></g></g></g></svg>