<?xml version="1.0" ?><svg height="24px" version="1.1" viewBox="0 0 24 24" width="24px" xmlns="http://www.w3.org/2000/svg" xmlns:sketch="http://www.bohemiancoding.com/sketch/ns" xmlns:xlink="http://www.w3.org/1999/xlink"><title/><desc/><defs/><g fill="none" fill-rule="evenodd" id="miu" stroke="none" stroke-width="1"><g id="Artboard-1" transform="translate(-863.000000, -479.000000)"><g id="slice" transform="translate(215.000000, 119.000000)"/><path d="M866.001204,480 C866.001204,480 865.500001,480 865.5,481 C865.5,482 866.001204,482 866.001204,482 L883.998796,482 C883.998796,482 884.5,482 884.5,481 C884.5,480 883.998796,480 883.998796,480 L866.001204,480 L866.001204,480 Z M866.473755,483 L867.472736,483 L869.473755,500 L880.473755,500 L882.473755,483 L883.473755,483 L881.473755,501 L868.473755,501 L866.473755,483 Z M873.473755,479 C872.473755,479 872.473755,480 872.473755,480 L877.473755,480 C877.473755,480 877.473755,479 876.473755,479 L873.473755,479 L873.473755,479 Z M871.473755,499 L872.473755,499 L871.473755,482.962891 L870.473755,482.962891 L871.473755,499 Z M878.473755,482.962891 L877.473755,499 L878.473755,499 L879.473755,482.962891 L878.473755,482.962891 L878.473755,482.962891 Z M874.473755,482.962891 L874.473755,499 L875.473755,499 L875.473755,482.962891 L874.473755,482.962891 L874.473755,482.962891 Z" fill="#000000" id="editor-trash-delete-recycle-bin-outline-stroke"/></g></g></svg>