<?xml version="1.0" ?><!DOCTYPE svg  PUBLIC '-//W3C//DTD SVG 1.1//EN'  'http://www.w3.org/Graphics/SVG/1.1/DTD/svg11.dtd'><svg enable-background="new 0 0 300 300" height="300px" id="Layer_1" version="1.1" viewBox="0 0 300 300" width="300px" xml:space="preserve" xmlns="http://www.w3.org/2000/svg" xmlns:xlink="http://www.w3.org/1999/xlink"><g><path d="M150.755,14.798c-74.554,0-134.994,60.441-134.994,134.999c0,74.562,60.44,135.001,134.994,135.001   c74.562,0,135.005-60.439,135.005-135.001C285.761,75.24,225.317,14.798,150.755,14.798z M150.755,265.708   c-64.01,0-115.912-51.897-115.912-115.911c0-64.013,51.902-115.908,115.912-115.908c64.018,0,115.912,51.895,115.912,115.908   C266.667,213.811,214.773,265.708,150.755,265.708z" fill="#D77E47"/><path d="M255.192,149.797c0,57.677-46.76,104.433-104.437,104.433S46.33,207.474,46.33,149.797   c0-57.674,46.748-104.428,104.425-104.428S255.192,92.123,255.192,149.797z" fill="#D77E47"/><path d="M172.602,86.568c-25.56,0-46.287,20.719-46.287,46.292c0,6.363,1.283,12.429,3.613,17.954l-47.301,42.181   l17.872,20.033l46.6-41.554c7.327,4.828,16.082,7.668,25.504,7.668c25.571,0,46.29-20.719,46.29-46.282   C218.892,107.295,198.173,86.568,172.602,86.568z M171.951,163.361c-16.207,0-29.337-13.133-29.337-29.338   c0-16.203,13.13-29.34,29.337-29.34c16.203,0,29.338,13.137,29.338,29.34C201.289,150.228,188.154,163.361,171.951,163.361z" fill="#FFFFFF"/></g></svg>